# xmcd
#
# Track frame offsets:
#	150
#	32070
#	54132
#	74241
#	91833
#	113776
#	133798
#	154369
#	173665
#	190371
#	207721
#	225824
#
# Disc length: 3249
#
# Revision: 3
# Processed by: cddbd v1.5.1PL0 Copyright (c) Steve Scherf et al.
# Submitted via: DiscPlay 4.0.4
# Normalized: r1:TDELIM( - ),TSWAP
#
DISCID=a50caf0c
DTITLE=Various Artist - in love
DYEAR=1900
DGENRE=
TTITLE0=Eric Carmen - All by Myself
TTITLE1=Take That - Babe
TTITLE2=Kylie Minogue - Confide in Me
TTITLE3=Bad Boys Blue - I Totally Miss You
TTITLE4=Rick Astley - Cry For Help
TTITLE5=Curtis Stigers - I Wonder Why
TTITLE6=John Pazarelli - Beautiful Maria Of My Soul
TTITLE7=David Stewart - Lily Was Here
TTITLE8=World's Apart - Could It Be I'm Falling In Love
TTITLE9=I've Been Thinking About You - Londonbeat
TTITLE10=Level 42 - All Over You
TTITLE11=Gary Moore - Spanish Guitar
EXTD=
EXTT0=
EXTT1=
EXTT2=
EXTT3=
EXTT4=
EXTT5=
EXTT6=
EXTT7=
EXTT8=
EXTT9=
EXTT10=
EXTT11=
PLAYORDER=
